<svg width="129" height="18" viewBox="0 0 129 18" fill="none" xmlns="http://www.w3.org/2000/svg">
<path fill-rule="evenodd" clip-rule="evenodd" d="M98.222 17.1706C93.7105 17.1706 90.0402 13.5048 90.0402 8.99968C90.0402 4.4946 93.7105 0.828403 98.222 0.828403C102.733 0.828403 106.403 4.4946 106.403 8.99968C106.403 13.5048 102.733 17.1706 98.222 17.1706ZM98.222 2.12727C94.4273 2.12727 91.3402 5.21011 91.3402 8.99968C91.3402 12.7889 94.4273 15.8721 98.222 15.8721C102.016 15.8721 105.103 12.7889 105.103 8.99968C105.103 5.21011 102.016 2.12727 98.222 2.12727Z" fill="#20272D"/>
<path fill-rule="evenodd" clip-rule="evenodd" d="M129 17.1708H127.7V8.99948C127.7 5.21031 124.613 2.12746 120.818 2.12746C117.023 2.12746 113.936 5.21031 113.935 8.99948V17.1708H112.635V8.99948C112.636 4.4944 116.307 0.828602 120.818 0.828602C125.33 0.828602 129 4.4944 129 8.99948V17.1708Z" fill="#20272D"/>
<path fill-rule="evenodd" clip-rule="evenodd" d="M69.0883 17.1708H67.7878V8.99948C67.789 4.4944 71.4597 0.828602 75.9708 0.828602C80.483 0.828602 84.153 4.4944 84.153 8.99948H82.8529C82.8529 5.21031 79.7659 2.12746 75.9708 2.12746C72.1761 2.12746 69.0895 5.21031 69.0883 8.99948V17.1708Z" fill="#20272D"/>
<path fill-rule="evenodd" clip-rule="evenodd" d="M53.4419 17.1716C48.9304 17.1716 45.2597 13.5058 45.2597 9.00032V1.17482H46.5598V9.00032C46.5598 12.7899 49.6472 15.8727 53.4419 15.8727C57.2366 15.8727 60.324 12.7899 60.3244 9.00032V1.17482H61.6249V9.00032C61.6241 13.5058 57.953 17.1716 53.4419 17.1716Z" fill="#20272D"/>
<path fill-rule="evenodd" clip-rule="evenodd" d="M30.7782 15.8722C27.2034 15.8722 24.2563 13.1347 23.9277 9.64899H38.962V8.99976C38.962 4.49427 35.2909 0.828478 30.7782 0.828478C26.2671 0.828478 22.5968 4.49427 22.5968 8.99976C22.5968 13.5048 26.2671 17.1706 30.7782 17.1706C33.8681 17.1706 36.6213 15.4553 38.0213 12.761H36.5234C35.2689 14.6783 33.1397 15.8722 30.7782 15.8722ZM30.7782 2.12694C34.3546 2.12694 37.3029 4.86481 37.6316 8.35053H23.9277C24.2563 4.86481 27.2034 2.12694 30.7782 2.12694Z" fill="#20272D"/>
<path fill-rule="evenodd" clip-rule="evenodd" d="M16.3652 17.1708H15.0647V8.99951C15.0647 5.21034 11.9781 2.12749 8.183 2.12749C4.38833 2.12749 1.30127 5.21034 1.30047 8.99951V17.1708H0V8.99951C0.00119933 4.49443 3.67193 0.82863 8.183 0.82863C12.6949 0.82863 16.3652 4.49443 16.3652 8.99951V17.1708Z" fill="#20272D"/>
</svg>
