<svg width="1256" height="160" viewBox="0 0 1256 160" fill="none" xmlns="http://www.w3.org/2000/svg">
<g clip-path="url(#clip0_834_275)">
<path d="M300.538 147.071C283.926 147.05 267.916 140.844 255.628 129.664C243.341 118.483 235.656 103.129 234.071 86.5917H379.999V80.3043C380.074 60.7271 372.967 41.8022 360.025 27.1132C347.082 12.4241 329.203 2.99075 309.772 0.599304C290.342 -1.79214 270.709 3.02437 254.591 14.1368C238.473 25.2492 226.989 41.8861 222.314 60.8971C217.64 79.908 220.098 99.9733 229.224 117.293C238.351 134.613 253.511 147.986 271.835 154.878C290.159 161.771 310.374 161.705 328.653 154.693C346.931 147.681 362.004 134.21 371.017 116.831H356.467C350.433 126.127 342.167 133.765 332.424 139.047C322.681 144.329 311.771 147.087 300.688 147.071M300.688 13.5079C317.285 13.5512 333.273 19.7665 345.542 30.9448C357.81 42.1231 365.482 57.4653 367.065 73.9869H234.071C235.656 57.4499 243.341 42.0951 255.628 30.9147C267.916 19.7342 283.926 13.5289 300.538 13.5079" fill="#4A5157"/>
<path d="M440 5.99999L452.725 5.99999L452.725 80C452.725 97.8424 459.813 114.954 472.43 127.57C485.046 140.187 502.158 147.275 520 147.275C537.842 147.275 554.954 140.187 567.57 127.57C580.187 114.954 587.275 97.8424 587.275 80L587.275 6L600 6L600 80C600 101.217 591.571 121.566 576.569 136.569C561.566 151.571 541.217 160 520 160C498.783 160 478.434 151.571 463.431 136.569C448.429 121.566 440 101.217 440 80L440 5.99999Z" fill="#4A5157"/>
<path d="M160 159.976H147.275V79.9761C147.275 62.1337 140.187 45.0221 127.57 32.4056C114.954 19.7892 97.8424 12.7013 80 12.7013C62.1576 12.7013 45.046 19.7892 32.4295 32.4056C19.8131 45.0221 12.7252 62.1337 12.7252 79.9761V159.976H0V79.9761C0 58.7588 8.42855 38.4104 23.4315 23.4075C38.4344 8.40462 58.7827 -0.0239258 80 -0.0239258C101.217 -0.0239258 121.566 8.40462 136.569 23.4075C151.571 38.4104 160 58.7588 160 79.9761V159.976Z" fill="#4A5157"/>
<path d="M1256 159.976H1243.27V79.9761C1243.27 62.1337 1236.19 45.0221 1223.57 32.4056C1210.95 19.7892 1193.84 12.7013 1176 12.7013C1158.16 12.7013 1141.05 19.7892 1128.43 32.4056C1115.81 45.0221 1108.73 62.1337 1108.73 79.9761V159.976H1096V79.9761C1096 58.7588 1104.43 38.4104 1119.43 23.4075C1134.43 8.40462 1154.78 -0.0239258 1176 -0.0239258C1197.22 -0.0239258 1217.57 8.40462 1232.57 23.4075C1247.57 38.4104 1256 58.7588 1256 79.9761V159.976Z" fill="#4A5157"/>
<path d="M672.725 160H660V80C660 58.7827 668.429 38.4344 683.431 23.4315C698.434 8.42855 718.783 0 740 0C761.217 0 781.566 8.42855 796.569 23.4315C811.571 38.4344 820 58.7827 820 80H807.275C807.275 62.1576 800.187 45.046 787.57 32.4295C774.954 19.8131 757.842 12.7252 740 12.7252C722.158 12.7252 705.046 19.8131 692.43 32.4295C679.813 45.046 672.725 62.1576 672.725 80V160Z" fill="#4A5157"/>
<path d="M957.91 159.976C942.09 159.958 926.63 155.25 913.485 146.448C900.341 137.645 890.101 125.143 884.061 110.521C878.021 95.8997 876.451 79.8157 879.55 64.3024C882.65 48.789 890.279 34.5429 901.474 23.365C912.669 12.187 926.927 4.5791 942.445 1.50302C957.962 -1.57307 974.044 0.0207715 988.656 6.08306C1003.27 12.1453 1015.76 22.4039 1024.54 35.5618C1033.32 48.7197 1038.01 64.1863 1038 80.0062C1037.98 101.213 1029.54 121.545 1014.54 136.538C999.542 151.531 979.207 159.96 958 159.976M958 12.7314C944.694 12.7314 931.687 16.677 920.624 24.0693C909.561 31.4615 900.938 41.9684 895.846 54.2613C890.754 66.5541 889.422 80.0808 892.018 93.1309C894.614 106.181 901.021 118.168 910.43 127.577C919.838 136.985 931.825 143.393 944.875 145.988C957.925 148.584 971.452 147.252 983.745 142.16C996.038 137.068 1006.54 128.445 1013.94 117.382C1021.33 106.319 1025.27 93.3119 1025.27 80.0062C1025.26 62.1531 1018.15 45.037 1005.52 32.4214C992.888 19.8058 975.763 12.7234 957.91 12.7314" fill="#2498FB"/>
</g>
<defs>
<clipPath id="clip0_834_275">
<rect width="1256" height="160" fill="white"/>
</clipPath>
</defs>
</svg>
